<svg width="911" height="493" viewBox="0 0 911 493" fill="none" xmlns="http://www.w3.org/2000/svg">
<path d="M20.915 440.085C19.945 439.133 19.3311 437.877 19.1759 436.528C19.0206 435.178 19.3335 433.815 20.0621 432.668L34.3762 409.751L61.2246 382.902C63.4732 380.671 66.5119 379.419 69.6796 379.417C71.2428 379.417 72.7907 379.724 74.2349 380.323C75.6792 380.921 76.9914 381.798 78.0968 382.903C79.2022 384.008 80.079 385.321 80.6772 386.765C81.2754 388.209 81.5833 389.757 81.5833 391.32C81.5814 394.488 80.3286 397.527 78.0975 399.775L51.2492 426.624L28.3317 440.938C27.1847 441.666 25.8223 441.979 24.4724 441.824C23.1224 441.669 21.8667 441.055 20.915 440.085Z" stroke="#4F76A5" stroke-width="6" stroke-miterlimit="10"/>
<path d="M68.085 409.751L54.6237 423.249L71.4596 453.583L81.5833 446.834L68.085 409.751Z" stroke="#4F76A5" stroke-width="6" stroke-miterlimit="10"/>
<path d="M51.2492 392.915L37.7508 406.376L7.41666 389.54L14.1658 379.417L51.2492 392.915Z" stroke="#4F76A5" stroke-width="6" stroke-miterlimit="10"/>
<path d="M25.9583 423.249H10.7912L7.41666 433.373L20.915 440.085L27.6642 453.583L37.7508 450.209V435.042" stroke="#4F76A5" stroke-width="6" stroke-miterlimit="10"/>
<path d="M151.435 301.777C322.099 103.058 476.108 240.894 519 263.5C561.893 286.106 643 311 687.5 304.5C764.126 293.308 790.5 284 834.5 222.5C878.5 161 855.296 92.7301 839 44.5001" stroke="#4F76A5" stroke-width="5" stroke-dasharray="17 17"/>
</svg>
