<svg width="386" height="68" viewBox="0 0 386 68" fill="none" xmlns="http://www.w3.org/2000/svg">
<path d="M28.78 32.82C29.4026 29.0048 29.717 25.1457 29.72 21.28V18.7C29.7193 15.4544 28.759 12.2814 26.96 9.58C26.6345 9.09363 26.1941 8.695 25.6778 8.41941C25.1615 8.14382 24.5852 7.99977 24 8C23.4318 8.01589 22.8756 8.16762 22.378 8.44251C21.8805 8.71739 21.4559 9.10743 21.14 9.58C19.341 12.2814 18.3807 15.4544 18.38 18.7V21.28C18.383 25.1457 18.6974 29.0048 19.32 32.82L20.92 42.36L22.2 50H26L27.18 42.36M28.78 32.82L27.18 42.36M28.78 32.82L45 36.64V29L29.72 21.36M27.18 42.36L25.92 50H35.46V44.28L27.18 42.36ZM19.22 32.82L3 36.64V29L18.28 21.36M41.18 21.36V27.1M6.82 21.36V27.1M20.82 42.36L22.08 50H12.54V44.28L20.82 42.36Z" stroke="url(#paint0_linear_6_77)" stroke-width="3" stroke-miterlimit="10"/>
<path d="M83.25 50.5C79.5833 50.5 76.4333 49.7667 73.8 48.3C71.2 46.8 69.2 44.7 67.8 42C66.4 39.2667 65.7 36.05 65.7 32.35C65.7 29.5833 66.1 27.1 66.9 24.9C67.7 22.6667 68.85 20.7667 70.35 19.2C71.85 17.6 73.6833 16.3833 75.85 15.55C78.05 14.6833 80.5167 14.25 83.25 14.25C85.0833 14.25 86.8833 14.4833 88.65 14.95C90.4167 15.4167 91.9667 16.0833 93.3 16.95C94 17.3833 94.4667 17.9167 94.7 18.55C94.9333 19.15 94.9833 19.75 94.85 20.35C94.7167 20.9167 94.4333 21.4 94 21.8C93.6 22.2 93.0833 22.4333 92.45 22.5C91.85 22.5333 91.1833 22.3167 90.45 21.85C89.4167 21.1833 88.3 20.7 87.1 20.4C85.9 20.1 84.6833 19.95 83.45 19.95C81.0833 19.95 79.0833 20.4333 77.45 21.4C75.8167 22.3667 74.5833 23.7667 73.75 25.6C72.9167 27.4333 72.5 29.6833 72.5 32.35C72.5 34.9833 72.9167 37.2333 73.75 39.1C74.5833 40.9667 75.8167 42.3833 77.45 43.35C79.0833 44.3167 81.0833 44.8 83.45 44.8C84.7167 44.8 85.9667 44.65 87.2 44.35C88.4333 44.0167 89.6 43.5167 90.7 42.85C91.4333 42.4167 92.0833 42.2333 92.65 42.3C93.25 42.3333 93.75 42.5333 94.15 42.9C94.55 43.2667 94.8167 43.7333 94.95 44.3C95.0833 44.8333 95.05 45.4 94.85 46C94.65 46.5667 94.25 47.0667 93.65 47.5C92.3167 48.4667 90.7167 49.2167 88.85 49.75C87.0167 50.25 85.15 50.5 83.25 50.5ZM108.584 50.5C105.818 50.5 103.734 49.7167 102.334 48.15C100.934 46.55 100.234 44.2167 100.234 41.15V17.5C100.234 16.4667 100.501 15.6833 101.034 15.15C101.568 14.6167 102.334 14.35 103.334 14.35C104.334 14.35 105.101 14.6167 105.634 15.15C106.201 15.6833 106.484 16.4667 106.484 17.5V40.85C106.484 42.3833 106.801 43.5167 107.434 44.25C108.101 44.9833 109.034 45.35 110.234 45.35C110.501 45.35 110.751 45.35 110.984 45.35C111.218 45.3167 111.451 45.2833 111.684 45.25C112.151 45.1833 112.468 45.3167 112.634 45.65C112.801 45.95 112.884 46.5833 112.884 47.55C112.884 48.3833 112.718 49.0333 112.384 49.5C112.051 49.9667 111.501 50.25 110.734 50.35C110.401 50.3833 110.051 50.4167 109.684 50.45C109.318 50.4833 108.951 50.5 108.584 50.5ZM127.107 50.5C124.574 50.5 122.374 49.9833 120.507 48.95C118.64 47.9167 117.19 46.45 116.157 44.55C115.124 42.6167 114.607 40.35 114.607 37.75C114.607 35.7833 114.89 34.0333 115.457 32.5C116.057 30.9333 116.907 29.6 118.007 28.5C119.107 27.3667 120.424 26.5167 121.957 25.95C123.49 25.35 125.207 25.05 127.107 25.05C129.64 25.05 131.84 25.5667 133.707 26.6C135.574 27.6333 137.024 29.1 138.057 31C139.09 32.9 139.607 35.15 139.607 37.75C139.607 39.7167 139.307 41.4833 138.707 43.05C138.14 44.6167 137.307 45.9667 136.207 47.1C135.107 48.2 133.79 49.05 132.257 49.65C130.724 50.2167 129.007 50.5 127.107 50.5ZM127.107 45.75C128.34 45.75 129.424 45.45 130.357 44.85C131.29 44.25 132.007 43.3667 132.507 42.2C133.04 41 133.307 39.5167 133.307 37.75C133.307 35.0833 132.74 33.1 131.607 31.8C130.474 30.4667 128.974 29.8 127.107 29.8C125.874 29.8 124.79 30.1 123.857 30.7C122.924 31.2667 122.19 32.15 121.657 33.35C121.157 34.5167 120.907 35.9833 120.907 37.75C120.907 40.3833 121.474 42.3833 122.607 43.75C123.74 45.0833 125.24 45.75 127.107 45.75ZM153.616 50.5C151.582 50.5 149.899 50.1333 148.566 49.4C147.232 48.6333 146.232 47.5 145.566 46C144.932 44.5 144.616 42.6333 144.616 40.4V28.3C144.616 27.2333 144.882 26.45 145.416 25.95C145.949 25.4167 146.716 25.15 147.716 25.15C148.716 25.15 149.482 25.4167 150.016 25.95C150.582 26.45 150.866 27.2333 150.866 28.3V40.5C150.866 42.2333 151.216 43.5167 151.916 44.35C152.616 45.1833 153.732 45.6 155.266 45.6C156.932 45.6 158.299 45.0333 159.366 43.9C160.432 42.7333 160.966 41.2 160.966 39.3V28.3C160.966 27.2333 161.232 26.45 161.766 25.95C162.299 25.4167 163.066 25.15 164.066 25.15C165.066 25.15 165.832 25.4167 166.366 25.95C166.932 26.45 167.216 27.2333 167.216 28.3V47.2C167.216 49.3333 166.199 50.4 164.166 50.4C163.199 50.4 162.449 50.1333 161.916 49.6C161.382 49.0333 161.116 48.2333 161.116 47.2V43.4L161.816 44.9C161.116 46.7 160.049 48.0833 158.616 49.05C157.216 50.0167 155.549 50.5 153.616 50.5ZM176.821 50.4C175.821 50.4 175.054 50.1333 174.521 49.6C173.987 49.0333 173.721 48.2333 173.721 47.2V28.3C173.721 27.2667 173.987 26.4833 174.521 25.95C175.054 25.4167 175.804 25.15 176.771 25.15C177.737 25.15 178.487 25.4167 179.021 25.95C179.554 26.4833 179.821 27.2667 179.821 28.3V31.7L179.271 30.45C180.004 28.6833 181.137 27.35 182.671 26.45C184.237 25.5167 186.004 25.05 187.971 25.05C189.937 25.05 191.554 25.4167 192.821 26.15C194.087 26.8833 195.037 28 195.671 29.5C196.304 30.9667 196.621 32.8333 196.621 35.1V47.2C196.621 48.2333 196.354 49.0333 195.821 49.6C195.287 50.1333 194.521 50.4 193.521 50.4C192.521 50.4 191.737 50.1333 191.171 49.6C190.637 49.0333 190.371 48.2333 190.371 47.2V35.4C190.371 33.5 190.004 32.1167 189.271 31.25C188.571 30.3833 187.471 29.95 185.971 29.95C184.137 29.95 182.671 30.5333 181.571 31.7C180.504 32.8333 179.971 34.35 179.971 36.25V47.2C179.971 49.3333 178.921 50.4 176.821 50.4ZM212.369 50.5C210.235 50.5 208.352 49.9833 206.719 48.95C205.119 47.9167 203.869 46.45 202.969 44.55C202.069 42.6167 201.619 40.35 201.619 37.75C201.619 35.1167 202.069 32.8667 202.969 31C203.869 29.1 205.119 27.6333 206.719 26.6C208.352 25.5667 210.235 25.05 212.369 25.05C214.402 25.05 216.169 25.55 217.669 26.55C219.202 27.55 220.235 28.8667 220.769 30.5H220.219V17.5C220.219 16.4667 220.485 15.6833 221.019 15.15C221.552 14.6167 222.319 14.35 223.319 14.35C224.319 14.35 225.085 14.6167 225.619 15.15C226.185 15.6833 226.469 16.4667 226.469 17.5V47.2C226.469 48.2333 226.202 49.0333 225.669 49.6C225.135 50.1333 224.369 50.4 223.369 50.4C222.369 50.4 221.602 50.1333 221.069 49.6C220.535 49.0333 220.269 48.2333 220.269 47.2V43.3L220.819 44.8C220.319 46.5333 219.302 47.9167 217.769 48.95C216.235 49.9833 214.435 50.5 212.369 50.5ZM214.119 45.75C215.352 45.75 216.435 45.45 217.369 44.85C218.302 44.25 219.019 43.3667 219.519 42.2C220.052 41 220.319 39.5167 220.319 37.75C220.319 35.0833 219.752 33.1 218.619 31.8C217.485 30.4667 215.985 29.8 214.119 29.8C212.885 29.8 211.802 30.1 210.869 30.7C209.935 31.2667 209.202 32.15 208.669 33.35C208.169 34.5167 207.919 35.9833 207.919 37.75C207.919 40.3833 208.485 42.3833 209.619 43.75C210.752 45.0833 212.252 45.75 214.119 45.75ZM258.823 50.4C257.79 50.4 256.99 50.1167 256.423 49.55C255.89 48.95 255.623 48.1333 255.623 47.1V20.1H245.873C245.007 20.1 244.323 19.8667 243.823 19.4C243.357 18.9 243.123 18.2333 243.123 17.4C243.123 16.5333 243.357 15.8833 243.823 15.45C244.323 14.9833 245.007 14.75 245.873 14.75H271.773C272.64 14.75 273.307 14.9833 273.773 15.45C274.273 15.8833 274.523 16.5333 274.523 17.4C274.523 18.2333 274.273 18.9 273.773 19.4C273.307 19.8667 272.64 20.1 271.773 20.1H262.023V47.1C262.023 48.1333 261.757 48.95 261.223 49.55C260.69 50.1167 259.89 50.4 258.823 50.4ZM276.872 50.4C275.839 50.4 275.039 50.1333 274.472 49.6C273.939 49.0333 273.672 48.2333 273.672 47.2V28.3C273.672 27.2667 273.939 26.4833 274.472 25.95C275.005 25.4167 275.755 25.15 276.722 25.15C277.689 25.15 278.439 25.4167 278.972 25.95C279.505 26.4833 279.772 27.2667 279.772 28.3V31.45H279.272C279.739 29.45 280.655 27.9333 282.022 26.9C283.389 25.8667 285.205 25.25 287.472 25.05C288.172 24.9833 288.722 25.1667 289.122 25.6C289.555 26 289.805 26.6333 289.872 27.5C289.939 28.3333 289.739 29.0167 289.272 29.55C288.839 30.05 288.172 30.35 287.272 30.45L286.172 30.55C284.139 30.75 282.605 31.3833 281.572 32.45C280.539 33.4833 280.022 34.95 280.022 36.85V47.2C280.022 48.2333 279.755 49.0333 279.222 49.6C278.689 50.1333 277.905 50.4 276.872 50.4ZM301.058 50.5C299.291 50.5 297.708 50.1667 296.308 49.5C294.941 48.8 293.858 47.8667 293.058 46.7C292.291 45.5333 291.908 44.2167 291.908 42.75C291.908 40.95 292.374 39.5333 293.308 38.5C294.241 37.4333 295.758 36.6667 297.858 36.2C299.958 35.7333 302.774 35.5 306.308 35.5H308.808V39.1H306.358C304.291 39.1 302.641 39.2 301.408 39.4C300.174 39.6 299.291 39.95 298.758 40.45C298.258 40.9167 298.008 41.5833 298.008 42.45C298.008 43.55 298.391 44.45 299.158 45.15C299.924 45.85 300.991 46.2 302.358 46.2C303.458 46.2 304.424 45.95 305.258 45.45C306.124 44.9167 306.808 44.2 307.308 43.3C307.808 42.4 308.058 41.3667 308.058 40.2V34.45C308.058 32.7833 307.691 31.5833 306.958 30.85C306.224 30.1167 304.991 29.75 303.258 29.75C302.291 29.75 301.241 29.8667 300.108 30.1C299.008 30.3333 297.841 30.7333 296.608 31.3C295.974 31.6 295.408 31.6833 294.908 31.55C294.441 31.4167 294.074 31.15 293.808 30.75C293.541 30.3167 293.408 29.85 293.408 29.35C293.408 28.85 293.541 28.3667 293.808 27.9C294.074 27.4 294.524 27.0333 295.158 26.8C296.691 26.1667 298.158 25.7167 299.558 25.45C300.991 25.1833 302.291 25.05 303.458 25.05C305.858 25.05 307.824 25.4167 309.358 26.15C310.924 26.8833 312.091 28 312.858 29.5C313.624 30.9667 314.008 32.8667 314.008 35.2V47.2C314.008 48.2333 313.758 49.0333 313.258 49.6C312.758 50.1333 312.041 50.4 311.108 50.4C310.174 50.4 309.441 50.1333 308.908 49.6C308.408 49.0333 308.158 48.2333 308.158 47.2V44.8H308.558C308.324 45.9667 307.858 46.9833 307.158 47.85C306.491 48.6833 305.641 49.3333 304.608 49.8C303.574 50.2667 302.391 50.5 301.058 50.5ZM330.007 50.4C329.174 50.4 328.441 50.1833 327.807 49.75C327.207 49.3167 326.707 48.65 326.307 47.75L318.357 29.3C318.057 28.5667 317.941 27.8833 318.007 27.25C318.107 26.6167 318.407 26.1167 318.907 25.75C319.441 25.35 320.157 25.15 321.057 25.15C321.824 25.15 322.441 25.3333 322.907 25.7C323.374 26.0333 323.791 26.6833 324.157 27.65L330.907 44.5H329.407L336.357 27.6C336.724 26.6667 337.141 26.0333 337.607 25.7C338.107 25.3333 338.774 25.15 339.607 25.15C340.341 25.15 340.924 25.35 341.357 25.75C341.791 26.1167 342.057 26.6167 342.157 27.25C342.257 27.85 342.141 28.5167 341.807 29.25L333.707 47.75C333.341 48.65 332.841 49.3167 332.207 49.75C331.607 50.1833 330.874 50.4 330.007 50.4ZM358.036 50.5C355.27 50.5 352.886 49.9833 350.886 48.95C348.886 47.9167 347.336 46.45 346.236 44.55C345.17 42.65 344.636 40.4 344.636 37.8C344.636 35.2667 345.153 33.05 346.186 31.15C347.253 29.25 348.703 27.7667 350.536 26.7C352.403 25.6 354.52 25.05 356.886 25.05C358.62 25.05 360.17 25.3333 361.536 25.9C362.936 26.4667 364.12 27.2833 365.086 28.35C366.086 29.4167 366.836 30.7167 367.336 32.25C367.87 33.75 368.136 35.45 368.136 37.35C368.136 37.95 367.92 38.4167 367.486 38.75C367.086 39.05 366.503 39.2 365.736 39.2H349.686V35.6H363.736L362.936 36.35C362.936 34.8167 362.703 33.5333 362.236 32.5C361.803 31.4667 361.153 30.6833 360.286 30.15C359.453 29.5833 358.403 29.3 357.136 29.3C355.736 29.3 354.536 29.6333 353.536 30.3C352.57 30.9333 351.82 31.85 351.286 33.05C350.786 34.2167 350.536 35.6167 350.536 37.25V37.6C350.536 40.3333 351.17 42.3833 352.436 43.75C353.736 45.0833 355.636 45.75 358.136 45.75C359.003 45.75 359.97 45.65 361.036 45.45C362.136 45.2167 363.17 44.8333 364.136 44.3C364.836 43.9 365.453 43.7333 365.986 43.8C366.52 43.8333 366.936 44.0167 367.236 44.35C367.57 44.6833 367.77 45.1 367.836 45.6C367.903 46.0667 367.803 46.55 367.536 47.05C367.303 47.55 366.886 47.9833 366.286 48.35C365.12 49.0833 363.77 49.6333 362.236 50C360.736 50.3333 359.336 50.5 358.036 50.5ZM381.436 50.5C378.669 50.5 376.586 49.7167 375.186 48.15C373.786 46.55 373.086 44.2167 373.086 41.15V17.5C373.086 16.4667 373.353 15.6833 373.886 15.15C374.419 14.6167 375.186 14.35 376.186 14.35C377.186 14.35 377.953 14.6167 378.486 15.15C379.053 15.6833 379.336 16.4667 379.336 17.5V40.85C379.336 42.3833 379.653 43.5167 380.286 44.25C380.953 44.9833 381.886 45.35 383.086 45.35C383.353 45.35 383.603 45.35 383.836 45.35C384.069 45.3167 384.303 45.2833 384.536 45.25C385.003 45.1833 385.319 45.3167 385.486 45.65C385.653 45.95 385.736 46.5833 385.736 47.55C385.736 48.3833 385.569 49.0333 385.236 49.5C384.903 49.9667 384.353 50.25 383.586 50.35C383.253 50.3833 382.903 50.4167 382.536 50.45C382.169 50.4833 381.803 50.5 381.436 50.5Z" fill="url(#paint1_linear_6_77)"/>
<defs>
<linearGradient id="paint0_linear_6_77" x1="24" y1="8" x2="24" y2="50" gradientUnits="userSpaceOnUse">
<stop stop-color="white" stop-opacity="0.14"/>
<stop offset="1" stop-color="white"/>
</linearGradient>
<linearGradient id="paint1_linear_6_77" x1="225" y1="120" x2="225" y2="-12.5" gradientUnits="userSpaceOnUse">
<stop offset="0.520833" stop-color="white"/>
<stop offset="0.833333" stop-color="white" stop-opacity="0"/>
</linearGradient>
</defs>
</svg>
