<svg width="24" height="24" viewBox="0 0 24 24" fill="none" xmlns="http://www.w3.org/2000/svg">
<g clip-path="url(#clip0_7_216)">
<path d="M21.46 16.54C20.6479 18.2355 19.3959 19.6822 17.8345 20.7292C16.2731 21.7762 14.4594 22.3852 12.5825 22.4928C10.7056 22.6003 8.83422 22.2025 7.1634 21.3407C5.49259 20.4789 4.08351 19.1848 3.08304 17.5931C2.08258 16.0015 1.52735 14.1706 1.47523 12.2914C1.42312 10.4121 1.87602 8.55328 2.78673 6.90863C3.69745 5.26398 5.03264 3.89371 6.65312 2.94065C8.27361 1.9876 10.1201 1.48665 12 1.49001C12.9464 1.48796 13.8885 1.61582 14.8 1.87001C12.9528 2.4559 11.3761 3.68309 10.3546 5.32989C9.33315 6.97669 8.93432 8.93451 9.23016 10.8497C9.52601 12.7648 10.497 14.511 11.9678 15.7728C13.4386 17.0346 15.3122 17.7288 17.25 17.73C18.7367 17.7322 20.1945 17.3202 21.46 16.54Z" stroke="#FFEB39" stroke-width="2" stroke-miterlimit="10"/>
</g>
<defs>
<clipPath id="clip0_7_216">
<rect width="24" height="24" fill="white"/>
</clipPath>
</defs>
</svg>
