<svg width="35" height="35" viewBox="0 0 35 35" fill="none" xmlns="http://www.w3.org/2000/svg">
<g clip-path="url(#clip0_6_147)">
<path d="M17.5 0.729187V3.52919" stroke="#FFEB39" stroke-width="2" stroke-miterlimit="10"/>
<path d="M17.5 31.4708V34.2708" stroke="#FFEB39" stroke-width="2" stroke-miterlimit="10"/>
<path d="M34.2708 17.5H31.4708" stroke="#FFEB39" stroke-width="2" stroke-miterlimit="10"/>
<path d="M3.52913 17.5H0.729126" stroke="#FFEB39" stroke-width="2" stroke-miterlimit="10"/>
<path d="M17.5 0.729187V3.52919" stroke="#FFEB39" stroke-width="2" stroke-miterlimit="10"/>
<path d="M17.5 31.4708V34.2708" stroke="#FFEB39" stroke-width="2" stroke-miterlimit="10"/>
<path d="M34.2708 17.5H31.4708" stroke="#FFEB39" stroke-width="2" stroke-miterlimit="10"/>
<path d="M3.52913 17.5H0.729126" stroke="#FFEB39" stroke-width="2" stroke-miterlimit="10"/>
<path d="M29.3562 5.64374L27.3875 7.61249" stroke="#FFEB39" stroke-width="2" stroke-miterlimit="10"/>
<path d="M7.61255 27.3875L5.6438 29.3563" stroke="#FFEB39" stroke-width="2" stroke-miterlimit="10"/>
<path d="M29.3562 29.3563L27.3875 27.3875" stroke="#FFEB39" stroke-width="2" stroke-miterlimit="10"/>
<path d="M7.61255 7.61249L5.6438 5.64374" stroke="#FFEB39" stroke-width="2" stroke-miterlimit="10"/>
<path d="M29.3562 5.64374L27.3875 7.61249" stroke="#FFEB39" stroke-width="2" stroke-miterlimit="10"/>
<path d="M7.61255 27.3875L5.6438 29.3563" stroke="#FFEB39" stroke-width="2" stroke-miterlimit="10"/>
<path d="M29.3562 29.3563L27.3875 27.3875" stroke="#FFEB39" stroke-width="2" stroke-miterlimit="10"/>
<path d="M7.61255 7.61249L5.6438 5.64374" stroke="#FFEB39" stroke-width="2" stroke-miterlimit="10"/>
<path d="M17.5 27.2854C22.9044 27.2854 27.2854 22.9044 27.2854 17.5C27.2854 12.0957 22.9044 7.7146 17.5 7.7146C12.0957 7.7146 7.7146 12.0957 7.7146 17.5C7.7146 22.9044 12.0957 27.2854 17.5 27.2854Z" stroke="#FFEB39" stroke-width="2" stroke-miterlimit="10"/>
</g>
<defs>
<clipPath id="clip0_6_147">
<rect width="35" height="35" fill="white"/>
</clipPath>
</defs>
</svg>
